<?xml version="1.0" standalone="no"?><!DOCTYPE svg PUBLIC "-//W3C//DTD SVG 1.1//EN" "http://www.w3.org/Graphics/SVG/1.1/DTD/svg11.dtd"><svg t="1611814805574" class="icon" viewBox="0 0 1024 1024" version="1.1" xmlns="http://www.w3.org/2000/svg" p-id="3222" xmlns:xlink="http://www.w3.org/1999/xlink" width="150" height="150"><defs><style type="text/css"></style></defs><path d="M606.303294 702.925401c-26.602891 0-48.160883 21.559015-48.160883 48.15986 0 26.603915 21.560038 48.160883 48.160883 48.160883 26.571169 0 48.131207-21.557992 48.131207-48.160883C654.434501 724.484416 632.87344 702.925401 606.303294 702.925401zM991.537146 92.989881 798.92022 92.989881c-17.735943 0-32.086789 14.350846-32.086789 32.086789l0 738.345098c0 17.798365 14.350846 32.085766 32.086789 32.085766l192.615902 0c17.73492 0 32.116465-14.288424 32.116465-32.085766L1023.652588 125.077693C1023.652588 107.340727 1009.272066 92.989881 991.537146 92.989881zM895.243009 847.378373c-53.206806 0-96.323812-43.115983-96.323812-96.29209 0-53.206806 43.117007-96.322789 96.323812-96.322789 53.176107 0 96.293113 43.115983 96.293113 96.322789C991.537146 804.26239 948.420139 847.378373 895.243009 847.378373zM991.537146 606.632287 798.92022 606.632287 798.92022 221.369783l192.615902 0L991.536123 606.632287zM417.949462 131.595131 231.881696 81.709977c-17.108656-4.576225-34.719756 5.577019-39.326681 22.717398L1.444397 817.672818c-4.575202 17.046235 5.577019 34.719756 22.718421 39.231513l186.036044 49.886177c17.140379 4.637624 34.750455-5.51562 39.325657-22.685675l191.110619-713.215768C445.242062 153.779386 435.058119 136.169309 417.949462 131.595131zM248.112356 765.28261c-13.756305 51.389414-66.555835 81.910545-117.945249 68.184939-51.389414-13.785981-81.877799-66.617234-68.090794-118.005624 13.756305-51.360761 66.555835-81.8471 117.944226-68.091818C231.410975 661.124366 261.901407 713.954595 248.112356 765.28261zM284.994358 627.721605l-186.067766-49.855478 99.707886-372.134509 186.067766 49.885154L284.994358 627.721605zM167.050132 695.811376c-25.694195-6.862291-52.110845 8.367575-58.972113 34.060747-6.894014 25.694195 8.335852 52.079122 34.029024 58.972113s52.109822-8.397251 58.972113-34.059724C207.972147 729.089293 192.712605 702.70539 167.050132 695.811376zM345.37761 278.304494l-124.023688-33.214473-8.30413 30.990828 124.023688 33.246195L345.37761 278.304494zM320.466244 371.338377l8.303106-31.021527-124.056434-33.214473-8.30413 30.990828L320.466244 371.338377zM959.449333 317.692572 831.008033 317.692572l0 32.118512 128.442324 0L959.450357 317.692572zM702.596408 92.989881 509.980505 92.989881c-17.736966 0-32.086789 14.350846-32.086789 32.086789l0 738.345098c0 17.798365 14.351869 32.085766 32.086789 32.085766l192.615902 0c17.733896 0 32.117488-14.288424 32.117488-32.085766L734.713896 125.077693C734.713896 107.340727 720.330304 92.989881 702.596408 92.989881zM606.303294 845.372693c-53.204759 0-96.322789-43.117007-96.322789-96.293113 0-53.205782 43.115983-96.322789 96.322789-96.322789 53.17713 0 96.294137 43.117007 96.294137 96.322789C702.596408 802.255687 659.479401 845.372693 606.303294 845.372693zM702.596408 606.632287 509.980505 606.632287 509.980505 221.369783l192.615902 0L702.596408 606.632287zM895.243009 702.925401c-26.603915 0-48.160883 21.559015-48.160883 48.15986 0 26.603915 21.557992 48.160883 48.160883 48.160883 26.572192 0 48.161906-21.557992 48.161906-48.160883C943.405939 724.484416 921.816225 702.925401 895.243009 702.925401zM959.449333 253.487272 831.008033 253.487272l0 32.086789 128.442324 0L959.450357 253.487272zM670.509618 253.487272 542.09697 253.487272l0 32.086789 128.411625 0L670.508595 253.487272zM670.509618 381.897873 542.09697 381.897873l0 32.086789 128.411625 0L670.508595 381.897873zM670.509618 317.692572 542.09697 317.692572l0 32.118512 128.411625 0L670.508595 317.692572zM959.449333 381.897873 831.008033 381.897873l0 32.086789 128.442324 0L959.450357 381.897873zM179.802574 400.134213l124.023688 33.215496 8.335852-30.989805-124.05541-33.247218L179.802574 400.134213z" p-id="3223"></path></svg>