<?xml version="1.0" standalone="no"?><!DOCTYPE svg PUBLIC "-//W3C//DTD SVG 1.1//EN" "http://www.w3.org/Graphics/SVG/1.1/DTD/svg11.dtd"><svg t="1611814909927" class="icon" viewBox="0 0 1024 1024" version="1.1" xmlns="http://www.w3.org/2000/svg" p-id="8710" xmlns:xlink="http://www.w3.org/1999/xlink" width="150" height="150"><defs><style type="text/css"></style></defs><path d="M219.1 503c8.2 0 15.8-2.6 22.3-7.2 0.6-0.4 1.2-0.8 1.8-1.3l0.3-0.3c1-0.8 2.1-1.7 3-2.7l276.2-245.9h141.1c16.1 82.4 88.7 144.5 175.8 144.5 98.9-0.1 179-80.3 179.2-179.2 0-98.9-80.2-179.2-179.2-179.2-79.7 0-147.2 52-170.5 124H502.5c-3.7 0-7.3 0.5-10.7 1.5-5.2 1.4-10 3.8-14.2 7.3-0.8 0.6-1.5 1.3-2.2 1.9l-281.9 242-146.2-0.3h-0.2c-23.1 0-41.8 21.1-41.9 47.1 0 26.1 18.7 47.2 41.7 47.2l172.2 0.6z m620.5-377.4c47.1 0.1 85.3 38.2 85.4 85.4 0 47.2-38.2 85.4-85.4 85.4s-85.4-38.2-85.4-85.4c0-47.1 38.2-85.4 85.4-85.4zM839.6 633.8c-82.1 0-151.3 55.2-172.5 130.5H523.6l-241-227.8c-10.8-10.4-27.4-11.2-41.8-7-14.4 4.3-26.4 18.3-29.9 32.9-3.4 14.6 1.2 29.9 12.1 40.2l251.6 241.8c1 1 2.1 1.8 3.3 2.6 7.2 6.6 16.4 10.5 26.4 10.5H666c19.8 77.4 90 134.6 173.6 134.6 98.9-0.1 179-80.3 179.2-179.2-0.1-98.9-80.3-179.1-179.2-179.1z m0 267.7c-48.9 0-88.5-39.6-88.5-88.5s39.6-88.5 88.5-88.5c48.9 0.1 88.5 39.7 88.5 88.5 0 48.9-39.6 88.5-88.5 88.5z" p-id="8711"></path></svg>