<?xml version="1.0" standalone="no"?><!DOCTYPE svg PUBLIC "-//W3C//DTD SVG 1.1//EN" "http://www.w3.org/Graphics/SVG/1.1/DTD/svg11.dtd"><svg t="1611814889352" class="icon" viewBox="0 0 1024 1024" version="1.1" xmlns="http://www.w3.org/2000/svg" p-id="7934" xmlns:xlink="http://www.w3.org/1999/xlink" width="150" height="150"><defs><style type="text/css"></style></defs><path d="M478.8224 906.0352c-31.5392 0-63.0784-12.0832-87.2448-36.0448l-237.568-237.568a123.4944 123.4944 0 0 1 0-174.4896L468.7872 143.1552c19.0464-19.0464 46.4896-28.2624 72.9088-24.3712l254.5664 35.6352c37.888 5.3248 68.1984 35.6352 73.5232 73.5232l35.6352 254.3616c3.6864 26.624-5.5296 54.0672-24.3712 72.9088L566.0672 869.9904a122.7776 122.7776 0 0 1-87.2448 36.0448z m50.9952-726.6304c-6.5536 0-12.9024 2.6624-17.6128 7.3728L197.4272 501.3504c-11.6736 11.6736-18.2272 27.2384-18.2272 43.8272s6.3488 32.1536 18.2272 43.8272l237.568 237.568c23.3472 23.3472 64.1024 23.3472 87.6544 0l314.7776-314.7776c5.5296-5.5296 8.192-13.312 6.9632-21.0944L808.96 236.3392c-1.6384-11.0592-10.24-19.6608-21.2992-21.2992L533.2992 179.6096c-1.2288-0.2048-2.2528-0.2048-3.4816-0.2048z" fill="#2F4072" p-id="7935"></path><path d="M619.52 496.4352c-25.3952 0-50.7904-9.6256-70.0416-28.8768-38.7072-38.7072-38.7072-101.5808 0-140.0832 38.7072-38.7072 101.5808-38.7072 140.0832 0 18.6368 18.6368 29.0816 43.6224 29.0816 70.0416s-10.24 51.4048-29.0816 70.0416c-19.2512 19.2512-44.6464 28.8768-70.0416 28.8768z m0-144.7936c-11.6736 0-23.552 4.5056-32.3584 13.312a45.8752 45.8752 0 0 0 0 64.7168c17.8176 17.8176 46.8992 17.8176 64.7168 0a45.568 45.568 0 0 0 0-64.7168c-8.8064-8.8064-20.48-13.312-32.3584-13.312z" fill="#0676fc" p-id="7936"></path></svg>